# xmcd
#
# Track frame offsets: 
#        150
#        20298
#        38113
#        56450
#        75526
#        93351
#        115108
#        130373
#        149685
#        167036
#        181322
#        199520
#        217070
#
# Disc length: 3134 seconds
#
# Revision: 0
# Processed by: cddbd v1.5.2PL0 Copyright (c) Steve Scherf et al.
# Submitted via: ExactAudioCopy v0.99pb3
#
DISCID=b10c3c0d
DTITLE=Rascal Flatts - Still Feels Good
DYEAR=2007
DGENRE=Country
TTITLE0=Take Me There
TTITLE1=Here
TTITLE2=Bob That Head
TTITLE3=Help Me Remember
TTITLE4=Still Feels Good
TTITLE5=Winner At A Losing Game
TTITLE6=No Reins
TTITLE7=Every Day
TTITLE8=Secret Smile
TTITLE9=Better Now
TTITLE10=She Goes All The Way
TTITLE11=How Strong Are You Now
TTITLE12=It's Not Supposed To Go Like That
EXTD=
EXTT0=
EXTT1=
EXTT2=
EXTT3=
EXTT4=
EXTT5=
EXTT6=
EXTT7=
EXTT8=
EXTT9=
EXTT10=
EXTT11=
EXTT12=
PLAYORDER=
